<svg xmlns="http://www.w3.org/2000/svg" width="100%" height="100%" viewBox="0 0 168.9 36.1"><path d="M4.4 0v13.6L0 18l4.4 4.5v13.6h8v-3.6H8V21l-2.9-3L8 15.1V3.6h4.4V0h-8zm37.1 0h-8v3.6H38V15l2.9 2.9L38 21v11.5h-4.4v3.6h8V22.5l4.4-4.4-4.4-4.5V0h-.1zm12.1 8.1c-.8 0-1.1-.2-1.1-.8 0-.7.5-.8 1.1-.8.6 0 1 .1 1 .8 0 .6-.3.8-1 .8M52 15v-.7l.7-.3v-4l-.7-.2v-.7l2.5-.4V14l.7.3v.7H52zm7.2 0v-.7l.6-.3v-2.8c0-1-.3-1.3-.9-1.3-.2 0-.3 0-.5.1v4l.6.3v.7h-3.2v-.7l.7-.3v-4l-.7-.2v-.7l2.5-.4v.7c.6-.2 1.1-.6 1.7-.6 1.2 0 1.5 1.1 1.5 2.1V14l.7.3v.7h-3zm5.5.2c-.9 0-1.4-.4-1.4-1.4v-4h-.6v-.7c.2-.1.9-.3 1-.4.3-.3.5-.7.8-1.1h.7v1.3h1.4v.9h-1.4v3.4c0 .7.3.9 1 .9h.4v.7c-.7.1-1.3.4-1.9.4m5.6-4.4c0-.5 0-1.3-.7-1.3-.8 0-.8 1-.8 1.6v.3l1.5-.2v-.4zM68.8 12c0 1.3.8 2.1 2 2.1.3 0 .5 0 1-.1l.1.7c-.2.1-.5.1-.8.2-.5.1-1.1.2-1.7.2-1.7 0-2.5-1.3-2.5-3 0-2.1 1.1-3.4 2.8-3.4 1.8 0 2.3 1.4 2.3 3v.3h-3.2zm7.2-1.4l-.1-.3c-.1-.2-.2-.3-.4-.3h-.2v4l.9.3v.7h-3.5v-.7l.7-.3v-4l-.7-.2v-.7l2.5-.4v.7c.5-.3.9-.7 1.5-.7.2 0 .3 0 .5.1v1.7H76zm5.1 4.4v-.7l.6-.3v-2.8c0-1-.3-1.3-.9-1.3-.2 0-.3 0-.5.1v4l.6.3v.7h-3.2v-.7l.7-.3v-4l-.7-.2v-.7l2.5-.4v.7c.6-.2 1.1-.6 1.7-.6 1.2 0 1.5 1.1 1.5 2.1V14l.7.3v.7h-3zm6.7-2.9l-.4.1c-.6.1-1 .3-1 1 0 .6.4.9 1 .9.2 0 .2 0 .4-.1v-1.9zm1.8 2.9c-.4.1-.7.2-1 .2-.5 0-.6-.2-.8-.6-.5.3-1.1.6-1.6.6-.9 0-1.5-.8-1.5-1.8 0-1.3.9-1.7 2.1-1.8l1-.1v-1.1c0-.5-.1-.7-.5-.8H87l-.4 1.1h-1.3V9.3c.8-.2 1.7-.5 2.6-.5 1.1 0 1.7.5 1.7 1.7v3.1c0 .2 0 .3.2.3l.5.1v.7c-.4.2-.2.1-.7.3m2.9.2c-.9 0-1.4-.4-1.4-1.4v-4h-.6v-.7c.2-.1.9-.3 1-.4.3-.3.5-.7.8-1.1h.7v1.3h1.4v.9H93v3.4c0 .7.3.9 1 .9h.4v.7c-.7.1-1.3.4-1.9.4m4-7.1c-.8 0-1.1-.2-1.1-.8 0-.7.5-.8 1.1-.8.6 0 1 .1 1 .8 0 .6-.3.8-1 .8M94.8 15v-.7l.7-.3v-4l-.7-.2v-.7l2.5-.4V14l.7.3v.7h-3.2zm6.6-5.4c-1.1 0-1 1.6-1 2.3 0 .8-.1 2.5 1 2.5s1-1.6 1-2.3c.1-.8.2-2.5-1-2.5m0 5.6c-2 0-2.8-1.3-2.8-3.2 0-1.8 1-3.2 2.8-3.2 1.8 0 2.8 1.1 2.8 3.1.1 2-1.1 3.3-2.8 3.3m6.8-.2v-.7l.6-.3v-2.8c0-1-.3-1.3-.9-1.3-.2 0-.3 0-.5.1v4l.6.3v.7h-3.2v-.7l.7-.3v-4l-.7-.2v-.7l2.5-.4v.7c.6-.2 1.1-.6 1.7-.6 1.2 0 1.5 1.1 1.5 2.1V14l.7.3v.7h-3zm6.7-2.9l-.4.1c-.6.1-1 .3-1 1 0 .6.4.9 1 .9.2 0 .2 0 .4-.1v-1.9zm1.9 2.9c-.4.1-.7.2-1 .2-.5 0-.6-.2-.8-.6-.5.3-1.1.6-1.6.6-.9 0-1.5-.8-1.5-1.8 0-1.3.9-1.7 2.1-1.8l1-.1v-1.1c0-.5-.1-.7-.5-.8h-.3l-.4 1.1h-1.3V9.3c.8-.2 1.7-.5 2.6-.5 1.1 0 1.7.5 1.7 1.7v3.1c0 .2 0 .3.2.3l.5.1v.7c-.4.2-.2.1-.7.3m3.5-8.4l-2.5.3v.7l.7.3V14l-.7.4v.6h3.3v-.6l-.8-.4zm6 1.5c-.8 0-1.1-.2-1.1-.8 0-.7.5-.8 1.1-.8.6 0 1 .1 1 .8.1.6-.2.8-1 .8m-1.6 6.9v-.7l.7-.3v-4l-.7-.2v-.7l2.5-.4V14l.7.3v.7h-3.2zm7.2 0v-.7l.6-.3v-2.8c0-1-.3-1.3-.9-1.3-.2 0-.3 0-.5.1v4l.6.3v.7h-3.2v-.7l.7-.3v-4l-.7-.2v-.7l2.5-.4v.7c.6-.2 1.1-.6 1.7-.6 1.2 0 1.5 1.1 1.5 2.1V14l.7.3v.7h-3zm5.9.2c-.5 0-1.3-.1-2.2-.4v-1.5h1.3l.5 1.1h.2c.4 0 .8-.2.8-.7 0-.5-.5-.8-.9-1l-.7-.5c-.6-.4-1.1-.8-1.1-1.7 0-1.1.8-1.8 2-1.8.8 0 1.4.2 2 .3v1.4h-1.1l-.5-1.1h-.1c-.5 0-.7.2-.7.7 0 .5.3.6.7.8l.7.5c.7.5 1.2.8 1.2 1.8 0 1.3-.9 2.1-2.1 2.1m4.7 0c-.9 0-1.4-.4-1.4-1.4v-4h-.6v-.7c.2-.1.9-.3 1-.4.3-.3.5-.7.8-1.1h.7v1.3h1.4v.9H143v3.4c0 .7.3.9 1 .9h.4v.7c-.7.1-1.3.4-1.9.4m3.9-7.1c-.8 0-1.1-.2-1.1-.8 0-.7.5-.8 1.1-.8.6 0 1 .1 1 .8.1.6-.2.8-1 .8m-1.6 6.9v-.7l.7-.3v-4l-.7-.2v-.7l2.5-.4V14l.7.3v.7h-3.2zm5.7.2c-.9 0-1.4-.4-1.4-1.4v-4h-.6v-.7c.2-.1.9-.3 1-.4.3-.3.5-.7.8-1.1h.7v1.3h1.4v.9H151v3.4c0 .7.3.9 1 .9h.4v.7c-.7.1-1.3.4-1.9.4m6.1 0v-.6c-.5.2-1.2.6-1.8.6-1.2 0-1.5-1.1-1.5-2.1v-3l-.7-.2v-.8l2.5-.4v3.9c0 1 .2 1.3 1 1.3h.5V10l-.7-.2v-.7l2.5-.4v5.1l.8.2v.7l-2.6.5zm4.9 0c-.9 0-1.4-.4-1.4-1.4v-4h-.6v-.7c.2-.1.9-.3 1-.4.3-.3.5-.7.8-1.1h.7v1.3h1.4v.9H162v3.4c0 .7.3.9 1 .9h.4v.7c-.7.1-1.3.4-1.9.4m5.7-4.4c0-.5 0-1.3-.7-1.3-.8 0-.8 1-.8 1.6v.3l1.5-.2v-.4zm-1.6 1.2c0 1.3.8 2.1 2 2.1.3 0 .5 0 1-.1l.1.7c-.2.1-.5.1-.8.2-.5.1-1.1.2-1.7.2-1.7 0-2.5-1.3-2.5-3 0-2.1 1.1-3.4 2.8-3.4 1.8 0 2.3 1.4 2.3 3v.3h-3.2zM54.8 21.5c-1.1 0-1 1.6-1 2.3 0 .8-.1 2.5 1 2.5s1-1.6 1-2.3c.1-.8.1-2.5-1-2.5m0 5.6c-2 0-2.8-1.3-2.8-3.2 0-1.8 1-3.2 2.8-3.2 1.8 0 2.8 1.1 2.8 3.1s-1.1 3.3-2.8 3.3m6.7-7.1l-.3-.9H61c-.2.1-.3.3-.3.8v.8h.9v.9h-.9V26l.9.3v.7h-3.4v-.7l.7-.3v-4.2h-.7v-.9h.7v-.1c0-1.4.8-2.2 2.2-2.2.3 0 .7 0 1.6.2V20h-1.2zm6.3 7.1c-.5 0-1.3-.1-2.2-.4v-1.5h1.3l.5 1.1h.2c.4 0 .8-.2.8-.7 0-.5-.5-.8-.9-1l-.7-.5c-.6-.4-1.1-.8-1.1-1.7 0-1.1.8-1.8 2-1.8.8 0 1.4.2 2 .3v1.4h-1.1l-.5-1.1H68c-.5 0-.7.2-.7.7 0 .5.3.6.7.8l.7.5c.7.5 1.2.8 1.2 1.8 0 1.3-.8 2.1-2.1 2.1m5.6-5.6c-1.1 0-1 1.6-1 2.3 0 .8-.1 2.5 1 2.5s1-1.6 1-2.3c.1-.8.2-2.5-1-2.5m0 5.6c-2 0-2.8-1.3-2.8-3.2 0-1.8 1-3.2 2.8-3.2 1.8 0 2.8 1.1 2.8 3.1s-1.1 3.3-2.8 3.3m5.9 0c-1.7 0-2.5-1.4-2.5-3 0-2 1.2-3.4 2.9-3.4.4 0 1 .1 1.8.3v1.5h-1.3l-.4-1.1c-.1 0-.2.1-.3.1-.7.4-.8 1.5-.8 2.2 0 1.3.5 2.3 1.9 2.3.3 0 .4 0 .8-.1l.1.7c-.6.3-1.5.5-2.2.5m4.5-7c-.8 0-1.1-.2-1.1-.8 0-.7.5-.8 1.1-.8.6 0 1 .1 1 .8 0 .6-.3.8-1 .8M82.2 27v-.7l.7-.3v-4l-.7-.2v-.7l2.5-.4V26l.7.3v.7h-3.2zm6.8-2.9l-.4.1c-.6.1-1 .3-1 1 0 .6.4.9 1 .9.2 0 .2 0 .4-.1v-1.9zm1.9 2.8c-.4.1-.7.2-1 .2-.5 0-.6-.2-.8-.6-.5.3-1.1.6-1.6.6-.9 0-1.5-.8-1.5-1.8 0-1.3.9-1.7 2.1-1.8l1-.1v-1.1c0-.5-.1-.7-.5-.8h-.3l-.4 1.1h-1.3v-1.3c.8-.2 1.7-.5 2.6-.5 1.1 0 1.7.5 1.7 1.7v3.2c0 .2 0 .3.2.3l.5.1v.7c-.4.1-.2 0-.7.1m1 .1v-.7l.7-.3v-6.2l-.7-.2v-.7l2.5-.4V26l.8.3v.7zm10.4 0v-.7l.6-.3v-2.8c0-.9-.1-1.3-1-1.3-.2 0-.3 0-.5.1v4l.6.3v.7h-3.2v-.7l.7-.3v-6.2l-.7-.2v-.7l2.5-.4v2.9c.5-.3 1.2-.6 1.8-.6 1.2 0 1.6 1.1 1.6 2.2v3l.7.3v.7h-3.1zm5.2-6.9c-.8 0-1.1-.2-1.1-.8 0-.7.5-.8 1.1-.8.6 0 1 .1 1 .8 0 .6-.3.8-1 .8m-1.6 6.9v-.7l.7-.3v-4l-.7-.2v-.7l2.5-.4V26l.7.3v.7h-3.2zm6.1.1c-.5 0-1.3-.1-2.2-.4v-1.5h1.3l.5 1.1h.2c.4 0 .8-.2.8-.7 0-.5-.5-.8-.9-1l-.7-.5c-.6-.4-1.1-.8-1.1-1.7 0-1.1.8-1.8 2-1.8.8 0 1.4.2 2 .3v1.4h-1.1l-.5-1.1h-.1c-.5 0-.7.2-.7.7 0 .5.3.6.7.8l.7.5c.7.5 1.2.8 1.2 1.8 0 1.3-.9 2.1-2.1 2.1m4.7 0c-.9 0-1.4-.4-1.4-1.4v-4h-.6V21c.2-.1.9-.3 1-.4.3-.3.5-.7.8-1.1h.7v1.3h1.4v.9h-1.4v3.4c0 .7.3.9 1 .9h.4v.7c-.8.2-1.3.4-1.9.4m5.1-5.6c-1.1 0-1 1.6-1 2.3 0 .8-.1 2.5 1 2.5s1-1.6 1-2.3c0-.8.1-2.5-1-2.5m-.1 5.6c-2 0-2.8-1.3-2.8-3.2 0-1.8 1-3.2 2.8-3.2 1.8 0 2.8 1.1 2.8 3.1.1 2-1 3.3-2.8 3.3m6.8-4.6l-.1-.3c-.1-.2-.2-.3-.4-.3h-.2v4l.9.3v.8h-3.5v-.7l.7-.3v-4l-.7-.2v-.7l2.5-.4v.7c.5-.3.9-.7 1.5-.7.2 0 .3 0 .5.1v1.7h-1.2z"></path><path d="M134.9 21.8l-2.1 6.1c-.4 1.1-.8 1.6-2 1.6-.3 0-.6-.1-1-.1v-1.6h1.1l.3.9c.3-.1.4-.4.5-.6l.2-.7-1.8-5.5-.5-.3v-.7h2.9v.7l-.5.3.9 3 .9-3-.5-.3v-.7h2.1v.7l-.5.2z"></path></svg>
